<?xml version="1.0" encoding="UTF-8"?>
<svg id="Layer_2" data-name="Layer 2" xmlns="http://www.w3.org/2000/svg" viewBox="0 0 1041.71 920.17">
  <defs>
    <style>
      .cls-1 {
        fill: #000000;
      }
    </style>
  </defs>
  <g id="Layer_1-2" data-name="Layer 1">
    <path class="cls-1" d="M1041.71,287.96c0,239.34-509.53,623.69-520.65,632.06-.14.08-.2.14-.2.14,0,0-316.77-237.31-456.22-456.56C25.24,401.69,0,341.25,0,287.96c0-19.7,1.98-38.91,5.74-57.5C28.61,117.55,117.55,28.61,230.46,5.74c18.59-3.76,37.81-5.74,57.5-5.74,95.76,0,180.54,46.75,232.89,118.65C573.2,46.75,657.98,0,753.75,0c75.13,0,143.53,28.78,194.78,75.87,6.03,5.55,11.8,11.32,17.29,17.32,47.14,51.28,75.9,119.67,75.9,194.77Z"/>
  </g>
</svg>