<?xml version="1.0" encoding="UTF-8"?>
<svg id="Layer_2" data-name="Layer 2" xmlns="http://www.w3.org/2000/svg" viewBox="0 0 1854.63 1517.69">
  <defs>
    <style>
      .cls-1 {
        fill: #370617;
        fill-rule: evenodd;
      }
    </style>
  </defs>
  <g id="Layer_1-2" data-name="Layer 1">
    <polygon class="cls-1" points="487.82 0 683.4 0 879 0 879 433.63 683.4 433.63 487.82 433.63 487.82 0"/>
    <polygon class="cls-1" points="975.63 542.03 1171.22 542.03 1366.81 542.03 1366.81 975.66 1171.22 975.66 975.63 975.66 975.63 542.03"/>
    <polygon class="cls-1" points="0 0 195.58 0 391.18 0 391.18 433.63 195.58 433.63 0 433.63 0 0"/>
    <polygon class="cls-1" points="0 542.03 195.58 542.03 391.18 542.03 391.18 975.66 195.58 975.66 0 975.66 0 542.03"/>
    <polygon class="cls-1" points="487.82 542.03 683.4 542.03 879 542.03 879 975.66 683.4 975.66 487.82 975.66 487.82 542.03"/>
    <polygon class="cls-1" points="487.82 1084.05 683.4 1084.05 879 1084.05 879 1517.69 683.4 1517.69 487.82 1517.69 487.82 1084.05"/>
    <polygon class="cls-1" points="975.63 1084.05 1171.22 1084.05 1366.81 1084.05 1366.81 1517.69 1171.22 1517.69 975.63 1517.69 975.63 1084.05"/>
    <polygon class="cls-1" points="0 1084.05 195.58 1084.05 391.18 1084.05 391.18 1517.69 195.58 1517.69 0 1517.69 0 1084.05"/>
    <polygon class="cls-1" points="1463.45 1084.05 1659.03 1084.05 1854.63 1084.05 1854.63 1517.69 1659.03 1517.69 1463.45 1517.69 1463.45 1084.05"/>
  </g>
</svg>