<?xml version="1.0" encoding="UTF-8"?>
<svg id="Layer_2" data-name="Layer 2" xmlns="http://www.w3.org/2000/svg" viewBox="0 0 245.46 232.59">
  <defs>
    <style>
      .cls-1 {
        fill: #333;
      }
    </style>
  </defs>
  <g id="Layer_1-2" data-name="Layer 1">
    <path class="cls-1" d="M244.94,118.65c1.18-3.05.29-6.7-2.22-9.06h0L129.44,2.66c-3.76-3.55-9.66-3.55-13.42,0L2.73,109.59c-2.51,2.37-3.4,6.01-2.22,9.06,1.23,3.17,4.21,5.21,7.6,5.21h20.02v103.02c0,3.15,2.56,5.71,5.71,5.71h56.41c3.15,0,5.71-2.56,5.71-5.71v-65.1c0-3.09,2.51-5.6,5.6-5.6h41.46c3.09,0,5.6,2.51,5.6,5.6v65.1c0,3.15,2.56,5.71,5.71,5.71h56.41c3.15,0,5.71-2.56,5.71-5.71v-103.02h20.87c3.39,0,6.38-2.05,7.6-5.21Z"/>
  </g>
</svg>