<?xml version="1.0" encoding="UTF-8"?>
<svg id="Layer_2" data-name="Layer 2" xmlns="http://www.w3.org/2000/svg" viewBox="0 0 3359.49 1714.29">
  <g id="Graphic_Elements" data-name="Graphic Elements" fill="#ffffff">
    <path d="M2597.68,798.42v36.81c-.25,4.7-1.91,9.05-4.6,12.58-.14.2-.29.38-.44.57-1.03,1.28-2.2,2.46-3.49,3.49-.19.16-.38.3-.57.44-3.48,2.64-7.72,4.3-12.35,4.58h-203.78c-17.5,0-26.26,21.16-13.88,33.53l86.76,86.77,3.08,3.08s.02.02.02.03c3.28,3.96,5.26,9.05,5.26,14.6,0,5.17-1.72,9.95-4.63,13.79l-28.23,28.23c-3.84,2.92-8.62,4.63-13.79,4.63-4.53,0-8.75-1.31-12.3-3.59l-7.04-7.04-148.64-148.65c-16.24-16.24-38.27-25.37-61.25-25.37h-108.2c-32.59,0-63.5,14.42-84.42,39.4l-104.51,124.72c-13.77,16.43-21.31,37.18-21.31,58.62v614.44c-.47,4.16-2.06,7.99-4.48,11.16-.14.2-.29.38-.44.57-1.03,1.28-2.2,2.46-3.49,3.49-.19.16-.38.3-.57.44-3.39,2.58-7.51,4.21-11.99,4.56h-211.74c-4.53,0-8.75-1.31-12.3-3.59-.32-.2-.63-.4-.93-.62-2.13-1.5-3.98-3.35-5.47-5.47-.22-.31-.43-.62-.63-.94-1.85-2.88-3.06-6.2-3.44-9.78v-614.25c0-21.44-7.55-42.19-21.32-58.62l-109.58-130.78c-17.71-21.13-43.87-33.34-71.44-33.34h-131.64c-13.03,0-25.53,5.17-34.74,14.38l-161.9,161.92-2.21,2.21c-.22.2-.44.38-.67.56-.19.16-.38.3-.57.44-3.84,2.92-8.62,4.63-13.79,4.63-4.53,0-8.75-1.31-12.3-3.59-.32-.2-.63-.4-.93-.62-.88-.62-1.73-1.31-2.5-2.05l-24.7-24.7c-.57-.64-1.1-1.3-1.6-2-.22-.31-.43-.62-.63-.94-2.27-3.54-3.58-7.76-3.58-12.29,0-6.32,2.57-12.06,6.72-16.21l94.84-94.84c9.92-9.93,2.9-26.9-11.14-26.9h-169.32c-4.15-.18-8.01-1.46-11.28-3.57-.32-.2-.63-.4-.93-.62-2.13-1.5-3.98-3.35-5.47-5.47-.22-.31-.43-.62-.63-.94-2.2-3.43-3.5-7.5-3.58-11.86v-33.66c.15-12.32,10.04-22.31,22.32-22.61h407.26c15.81,0,24.26-18.61,13.86-30.52l-196.23-224.58c-9.71-11.11-26.8-11.68-37.24-1.24l-123.25,123.24-2.18,2.18c-.23.2-.46.39-.69.58-.19.16-.38.3-.57.44-3.84,2.92-8.62,4.63-13.79,4.63-4.53,0-8.75-1.31-12.3-3.59-.32-.2-.63-.4-.93-.62-.69-.48-1.34-1-1.96-1.56l-1.95-1.94-21.52-21.52-1.65-1.66c-.61-.67-1.18-1.37-1.7-2.12-.22-.31-.43-.62-.63-.94-2.27-3.54-3.58-7.76-3.58-12.29,0-5.94,2.26-11.34,5.96-15.41l1.53-1.53s.02-.02.02-.02l122.71-122.72c11.2-11.2,11.22-29.35.06-40.59l-129.53-130.27-2.45-2.46c-.45-.52-.87-1.07-1.27-1.64-.22-.31-.43-.62-.63-.94-2.27-3.54-3.58-7.76-3.58-12.29,0-5.94,2.26-11.34,5.96-15.41.05-.05.09-.09.13-.14l1.42-1.42s.02-.02.02-.02l21.47-21.35,2.35-2.33c4.01-3.46,9.23-5.55,14.93-5.55s10.6,1.96,14.55,5.22c.29.24.57.48.85.74t.02.03l.29.27,1.1,1.1,215.92,217.17c14.12,14.2,32.68,21.3,51.23,21.3s37.18-7.13,51.31-21.38c35.72-36.02,35.6-94.14-.27-130.01l-126.06-126.07-2.23-2.23c-.51-.58-.98-1.19-1.42-1.82-.22-.31-.43-.62-.63-.94-2.27-3.54-3.58-7.76-3.58-12.29,0-6.19,2.45-11.81,6.45-15.93l.55-.55,22.57-22.56.94-.94c4.1-3.87,9.63-6.25,15.72-6.25,5.53,0,10.6,1.96,14.55,5.22.29.24.57.48.85.74,0,0,.02,0,.02.02l.2.2,1.22,1.22s.06.07.09.1l92.12,92.11c8.37,8.37,22.7,2.44,22.7-9.4V22.03c.46-12.15,10.38-21.89,22.6-22.03h34.53c5.03.27,9.63,2.18,13.27,5.18.29.24.57.48.85.74t.02.03c.54.47,1.03.97,1.51,1.5t.02.03c.23.25.46.52.68.78,0,.02.02.02.02.03,3.03,3.65,4.94,8.26,5.22,13.31v329.41c0,60.72-24.13,118.96-67.07,161.9l-35.43,35.43c-8.69,8.7-8.39,22.88.69,31.2l137.39,125.88c10.42,9.54,23.6,14.29,36.76,14.29,13.96,0,27.9-5.33,38.5-15.95,15.59-15.59,24.36-36.74,24.36-58.8v-330.39c.91-11.28,9.99-20.25,21.3-20.99h36.33c4.83.37,9.24,2.25,12.75,5.15.29.24.57.48.85.74t.02.03c.54.47,1.03.97,1.51,1.5t.02.03c.23.25.46.52.68.78,0,.02.02.02.02.03,3.05,3.68,4.97,8.34,5.23,13.43v250.55c0,12.87,15.56,19.32,24.65,10.21l106.55-106.53,2.63-2.63c3.99-3.4,9.17-5.46,14.82-5.46s10.54,1.94,14.47,5.15l24.53,24.53,1.09,1.08c.05.06.11.11.16.17t.02.03c.23.25.46.52.68.78,0,.02.02.02.02.03,3.28,3.96,5.26,9.05,5.26,14.6,0,5.17-1.72,9.95-4.63,13.79-.14.2-.29.38-.44.57-.12.15-.24.29-.38.44l-2.69,2.69-237.45,237.45c-16.67,16.67-15.97,43.93,1.55,59.72l105.52,95.08c18.31,16.5,46.12,16.5,64.42,0l302.51-272.61c33.85-30.51,35.21-83.14,2.99-115.36l-456.04-456.07-3.19-3.19c-.35-.42-.68-.85-.99-1.29-.22-.31-.43-.62-.63-.94-2.27-3.54-3.58-7.76-3.58-12.29,0-5.91,2.23-11.29,5.91-15.36l1.66-1.66,20.94-20.94,3.18-3.18c3.95-3.25,9.02-5.2,14.53-5.2s10.6,1.96,14.55,5.22c.26.21.51.43.75.65l.12.12,1.51,1.51s0,0,.02.02t0,.02l140.27,140.28c17.39,17.39,45.58,17.39,62.96,0l140.64-140.65.82-.82c4.11-3.91,9.66-6.32,15.78-6.32,5.53,0,10.6,1.96,14.55,5.22.13.11.26.21.38.32l2.31,2.31,21.7,21.7,1.09,1.08c.05.06.11.11.16.17t.02.03c.23.25.46.52.68.78,0,.02.02.02.02.03,3.28,3.96,5.26,9.05,5.26,14.6,0,5.17-1.72,9.95-4.63,13.79-.14.2-.29.38-.44.57-.38.47-.76.92-1.19,1.35l-1.02,1.03-142.42,142.43c-16.31,16.31-16.31,42.75,0,59.05l224.33,224.34c15.12,15.12,37.72,21.83,57.83,14.58,22.45-8.08,36.17-28.79,36.17-51.04V40.9c0-12.26,9.64-22.28,21.74-22.89h34.45c5.4.07,10.34,2.02,14.21,5.21.29.24.57.48.85.74t.02.03c.54.47,1.03.97,1.51,1.5t.02.03c.23.25.46.52.68.78,0,.02.02.02.02.03,3.03,3.65,4.94,8.26,5.22,13.31v177.55c0,14.91,18.03,22.37,28.57,11.84l86.71-86.71c3.92-3.13,8.88-5,14.27-5s10.6,1.96,14.55,5.22c.26.21.51.43.75.65l.12.12,1.51,1.51s0,0,.02.02h0s21.33,21.33,21.33,21.33l2.68,2.68c.07.07.13.15.2.22,0,.02.02.02.02.03,3.28,3.96,5.26,9.05,5.26,14.6,0,5.17-1.72,9.95-4.63,13.79-.07.09-.12.17-.2.25l-4.04,4.05-148.06,148.07c-12.21,12.21-19.07,28.77-19.07,46.02v6.4c0,26.93,21.83,48.76,48.75,48.76h179.26c4.93.33,9.42,2.21,13.01,5.16.29.24.57.48.85.74t.02.03c.54.47,1.03.97,1.51,1.5t.02.03c.23.25.46.52.68.78,0,.02.02.02.02.03,3,3.62,4.91,8.18,5.21,13.18v36.55c-.4,4.34-2.02,8.33-4.52,11.63-.14.2-.29.38-.44.57-1.03,1.28-2.2,2.46-3.49,3.49-.19.16-.38.3-.57.44-3.53,2.69-7.88,4.35-12.59,4.6h-197.32c-31.84,0-62.14,13.71-83.15,37.62l-138.97,158.18c-17.98,20.48-3.45,52.59,23.8,52.59h421.73c5.13.23,9.82,2.14,13.52,5.2.29.24.57.48.85.74t.02.03c.54.47,1.03.97,1.51,1.5t.02.03c.23.25.46.52.68.78,0,.02.02.02.02.03,2.76,3.32,4.59,7.45,5.11,11.96Z"/>
    <g>
      <path d="M102.74,1276.17c-.7-7.04-3.7-12.51-8.99-16.41-5.3-3.9-12.48-5.85-21.56-5.85-6.17,0-11.38.86-15.62,2.58-4.25,1.72-7.49,4.09-9.73,7.11-2.24,3.03-3.36,6.46-3.36,10.3-.12,3.2.57,5.99,2.05,8.38,1.48,2.39,3.54,4.44,6.15,6.15,2.62,1.72,5.64,3.2,9.08,4.45,3.43,1.25,7.1,2.31,11,3.19l16.06,3.84c7.8,1.75,14.96,4.07,21.47,6.98,6.52,2.91,12.16,6.49,16.93,10.74,4.77,4.25,8.48,9.25,11.13,15.01,2.65,5.76,4,12.37,4.06,19.81-.06,10.94-2.84,20.41-8.34,28.41-5.5,8-13.41,14.2-23.74,18.59-10.33,4.39-22.77,6.59-37.32,6.59s-26.99-2.21-37.67-6.63c-10.68-4.42-19-10.98-24.96-19.68-5.97-8.7-9.09-19.48-9.38-32.34h36.57c.41,5.99,2.14,10.99,5.19,14.97,3.06,3.99,7.16,6.98,12.31,8.99,5.15,2.01,10.98,3.01,17.5,3.01s11.97-.93,16.72-2.79c4.74-1.86,8.42-4.45,11.04-7.77,2.62-3.32,3.93-7.13,3.93-11.43,0-4.02-1.18-7.39-3.54-10.12s-5.79-5.06-10.3-6.98c-4.51-1.92-10.02-3.67-16.54-5.24l-19.47-4.89c-15.07-3.67-26.97-9.4-35.7-17.2-8.73-7.8-13.06-18.3-13.01-31.51-.06-10.82,2.84-20.28,8.69-28.37,5.85-8.09,13.89-14.4,24.14-18.94,10.24-4.54,21.88-6.81,34.92-6.81s24.86,2.27,34.78,6.81c9.92,4.54,17.65,10.85,23.18,18.94,5.53,8.09,8.38,17.46,8.55,28.11h-36.23Z"/>
      <path d="M324.45,1287.34h-38.23c-.7-4.95-2.12-9.35-4.28-13.22-2.15-3.87-4.92-7.17-8.29-9.91-3.38-2.73-7.26-4.83-11.65-6.28-4.39-1.45-9.15-2.18-14.27-2.18-9.25,0-17.31,2.29-24.18,6.85-6.87,4.57-12.19,11.2-15.97,19.9-3.78,8.7-5.67,19.25-5.67,31.64s1.91,23.45,5.72,32.12c3.81,8.67,9.15,15.22,16.02,19.64,6.87,4.42,14.81,6.63,23.83,6.63,5.06,0,9.76-.67,14.1-2.01,4.33-1.34,8.19-3.3,11.57-5.89,3.37-2.59,6.18-5.75,8.42-9.47,2.24-3.72,3.8-7.97,4.67-12.74l38.23.17c-.99,8.21-3.45,16.1-7.38,23.7-3.93,7.59-9.2,14.37-15.8,20.34-6.61,5.97-14.46,10.68-23.57,14.14-9.11,3.46-19.39,5.19-30.86,5.19-15.95,0-30.19-3.61-42.73-10.82-12.54-7.21-22.43-17.66-29.68-31.34-7.25-13.67-10.87-30.23-10.87-49.67s3.67-36.08,11-49.75c7.33-13.67,17.28-24.11,29.85-31.29,12.57-7.19,26.71-10.78,42.42-10.78,10.36,0,19.97,1.46,28.85,4.36,8.87,2.91,16.74,7.14,23.61,12.7,6.87,5.56,12.47,12.35,16.8,20.38,4.33,8.03,7.11,17.23,8.34,27.58Z"/>
      <path d="M351.59,1403.52v-178.77h70.53c13.5,0,25.04,2.4,34.61,7.2,9.57,4.8,16.88,11.58,21.91,20.34,5.03,8.76,7.55,19.04,7.55,30.86s-2.56,22.07-7.68,30.59c-5.12,8.53-12.53,15.06-22.22,19.6-9.69,4.54-21.4,6.81-35.13,6.81h-47.22v-30.38h41.11c7.21,0,13.21-.99,17.98-2.97,4.77-1.98,8.34-4.95,10.69-8.9,2.36-3.96,3.54-8.87,3.54-14.75s-1.18-10.94-3.54-15.01-5.94-7.17-10.74-9.3c-4.8-2.12-10.84-3.19-18.11-3.19h-25.49v147.87h-37.8ZM448.14,1322.17l44.43,81.35h-41.72l-43.47-81.35h40.76Z"/>
      <path d="M550.7,1224.76v178.77h-37.8v-178.77h37.8Z"/>
      <path d="M581.86,1403.52v-178.77h70.53c13.56,0,25.11,2.58,34.65,7.72,9.54,5.15,16.83,12.28,21.87,21.39,5.03,9.11,7.55,19.6,7.55,31.47s-2.56,22.35-7.68,31.42c-5.12,9.08-12.53,16.15-22.22,21.21-9.69,5.06-21.4,7.59-35.13,7.59h-44.95v-30.29h38.84c7.27,0,13.28-1.27,18.02-3.8,4.74-2.53,8.29-6.05,10.65-10.56,2.36-4.51,3.54-9.7,3.54-15.58s-1.18-11.13-3.54-15.58c-2.36-4.45-5.92-7.91-10.69-10.39-4.77-2.47-10.82-3.71-18.16-3.71h-25.49v147.87h-37.8Z"/>
      <path d="M734.26,1255.92v-31.16h146.82v31.16h-54.73v147.61h-37.36v-147.61h-54.73Z"/>
      <path d="M1015.77,1224.76h37.8v116.09c0,13.04-3.1,24.44-9.3,34.22-6.2,9.78-14.85,17.39-25.97,22.83-11.12,5.44-24.06,8.16-38.84,8.16s-27.82-2.72-38.93-8.16c-11.12-5.44-19.76-13.05-25.92-22.83-6.17-9.78-9.25-21.18-9.25-34.22v-116.09h37.8v112.86c0,6.81,1.5,12.86,4.5,18.16,3,5.3,7.23,9.46,12.7,12.48,5.47,3.03,11.84,4.54,19.12,4.54s13.72-1.51,19.16-4.54c5.44-3.03,9.66-7.19,12.66-12.48,3-5.29,4.5-11.35,4.5-18.16v-112.86Z"/>
      <path d="M1084.64,1403.52v-178.77h70.53c13.5,0,25.04,2.4,34.61,7.2,9.57,4.8,16.88,11.58,21.91,20.34,5.03,8.76,7.55,19.04,7.55,30.86s-2.56,22.07-7.68,30.59c-5.12,8.53-12.53,15.06-22.22,19.6-9.69,4.54-21.4,6.81-35.13,6.81h-47.22v-30.38h41.11c7.21,0,13.21-.99,17.98-2.97,4.77-1.98,8.34-4.95,10.69-8.9,2.36-3.96,3.54-8.87,3.54-14.75s-1.18-10.94-3.54-15.01-5.94-7.17-10.74-9.3c-4.8-2.12-10.84-3.19-18.11-3.19h-25.49v147.87h-37.8ZM1181.18,1322.17l44.43,81.35h-41.72l-43.47-81.35h40.76Z"/>
      <path d="M1245.95,1403.52v-178.77h120.46v31.16h-82.66v42.6h76.46v31.16h-76.46v42.68h83.01v31.16h-120.81Z"/>
    </g>
    <g>
      <path d="M2096.52,1403.52v-178.77h120.46v31.16h-82.66v42.6h76.47v31.16h-76.47v42.68h83.01v31.16h-120.81Z"/>
      <path d="M2282.53,1224.76l36.05,60.93h1.4l36.22-60.93h42.68l-54.56,89.38,55.78,89.38h-43.47l-36.66-61.01h-1.4l-36.66,61.01h-43.29l55.95-89.38-54.9-89.38h42.86Z"/>
      <path d="M2422.71,1403.52v-178.77h70.53c13.56,0,25.11,2.58,34.65,7.72,9.54,5.15,16.83,12.28,21.87,21.39,5.03,9.11,7.55,19.6,7.55,31.47s-2.56,22.35-7.68,31.42c-5.12,9.08-12.53,16.15-22.21,21.21-9.69,5.06-21.4,7.59-35.13,7.59h-44.95v-30.29h38.84c7.27,0,13.28-1.27,18.03-3.8,4.74-2.53,8.29-6.05,10.65-10.56,2.36-4.51,3.54-9.7,3.54-15.58s-1.18-11.13-3.54-15.58c-2.36-4.45-5.92-7.91-10.69-10.39-4.77-2.47-10.82-3.71-18.16-3.71h-25.49v147.87h-37.8Z"/>
      <path d="M2581.92,1403.52v-178.77h37.8v147.61h76.64v31.16h-114.44Z"/>
      <path d="M2878.7,1314.14c0,19.5-3.68,36.08-11.04,49.75-7.36,13.68-17.37,24.11-30.03,31.29-12.66,7.19-26.87,10.78-42.64,10.78s-30.15-3.61-42.77-10.82c-12.63-7.21-22.61-17.66-29.94-31.34-7.33-13.67-11-30.23-11-49.67s3.67-36.08,11-49.75c7.33-13.67,17.31-24.11,29.94-31.29,12.63-7.19,26.88-10.78,42.77-10.78s29.98,3.59,42.64,10.78c12.66,7.19,22.67,17.62,30.03,31.29,7.36,13.68,11.04,30.26,11.04,49.75ZM2840.38,1314.14c0-12.63-1.88-23.28-5.63-31.95-3.75-8.67-9.03-15.25-15.84-19.73-6.81-4.48-14.78-6.72-23.92-6.72s-17.11,2.24-23.92,6.72c-6.81,4.48-12.09,11.06-15.84,19.73-3.75,8.67-5.63,19.32-5.63,31.95s1.88,23.28,5.63,31.95c3.75,8.67,9.03,15.25,15.84,19.73,6.81,4.48,14.78,6.72,23.92,6.72s17.11-2.24,23.92-6.72c6.81-4.48,12.09-11.06,15.84-19.73,3.75-8.67,5.63-19.32,5.63-31.95Z"/>
      <path d="M2906.63,1403.52v-178.77h70.53c13.5,0,25.04,2.4,34.61,7.2,9.57,4.8,16.88,11.58,21.91,20.34,5.03,8.76,7.55,19.04,7.55,30.86s-2.56,22.07-7.68,30.59c-5.12,8.53-12.53,15.06-22.21,19.6-9.69,4.54-21.4,6.81-35.13,6.81h-47.22v-30.38h41.11c7.21,0,13.21-.99,17.98-2.97,4.77-1.98,8.34-4.95,10.69-8.9,2.36-3.96,3.54-8.87,3.54-14.75s-1.18-10.94-3.54-15.01-5.94-7.17-10.74-9.3c-4.8-2.12-10.84-3.19-18.11-3.19h-25.49v147.87h-37.8ZM3003.18,1322.17l44.43,81.35h-41.72l-43.47-81.35h40.76Z"/>
      <path d="M3067.94,1403.52v-178.77h120.46v31.16h-82.66v42.6h76.46v31.16h-76.46v42.68h83.01v31.16h-120.81Z"/>
      <path d="M3218.52,1403.52v-178.77h70.53c13.5,0,25.04,2.4,34.61,7.2,9.57,4.8,16.88,11.58,21.91,20.34,5.03,8.76,7.55,19.04,7.55,30.86s-2.56,22.07-7.68,30.59c-5.12,8.53-12.53,15.06-22.21,19.6-9.69,4.54-21.4,6.81-35.13,6.81h-47.22v-30.38h41.11c7.21,0,13.21-.99,17.98-2.97,4.77-1.98,8.34-4.95,10.69-8.9,2.36-3.96,3.54-8.87,3.54-14.75s-1.18-10.94-3.54-15.01-5.94-7.17-10.74-9.3c-4.8-2.12-10.84-3.19-18.11-3.19h-25.49v147.87h-37.8ZM3315.06,1322.17l44.43,81.35h-41.72l-43.47-81.35h40.76Z"/>
    </g>
  </g>
</svg>