<?xml version="1.0" encoding="UTF-8"?>
<svg id="Layer_2" data-name="Layer 2" xmlns="http://www.w3.org/2000/svg" viewBox="0 0 5343.41 1714.29">
  <g id="Graphic_Elements" data-name="Graphic Elements" fill="#ffffff">
    <path d="M3633.81,798.42v36.81c-.25,4.7-1.91,9.05-4.6,12.58-.14.2-.29.38-.44.57-1.03,1.28-2.2,2.46-3.49,3.49-.19.16-.38.3-.57.44-3.48,2.64-7.72,4.3-12.35,4.58h-203.78c-17.5,0-26.26,21.16-13.88,33.53l86.76,86.77,3.08,3.08s.02.02.02.03c3.28,3.96,5.26,9.05,5.26,14.6,0,5.17-1.72,9.95-4.63,13.79l-28.23,28.23c-3.84,2.92-8.62,4.63-13.79,4.63-4.53,0-8.75-1.31-12.3-3.59l-7.04-7.04-148.64-148.65c-16.24-16.24-38.27-25.37-61.25-25.37h-108.2c-32.59,0-63.5,14.42-84.42,39.4l-104.51,124.72c-13.77,16.43-21.31,37.18-21.31,58.62v614.44c-.47,4.16-2.06,7.99-4.48,11.16-.14.2-.29.38-.44.57-1.03,1.28-2.2,2.46-3.49,3.49-.19.16-.38.3-.57.44-3.39,2.58-7.51,4.21-11.99,4.56h-211.74c-4.53,0-8.75-1.31-12.3-3.59-.32-.2-.63-.4-.93-.62-2.13-1.5-3.98-3.35-5.47-5.47-.22-.31-.43-.62-.63-.94-1.85-2.88-3.06-6.2-3.44-9.78v-614.25c0-21.44-7.55-42.19-21.32-58.62l-109.58-130.78c-17.71-21.13-43.87-33.34-71.44-33.34h-131.64c-13.03,0-25.53,5.17-34.74,14.38l-161.9,161.92-2.21,2.21c-.22.2-.44.38-.67.56-.19.16-.38.3-.57.44-3.84,2.92-8.62,4.63-13.79,4.63-4.53,0-8.75-1.31-12.3-3.59-.32-.2-.63-.4-.93-.62-.88-.62-1.73-1.31-2.5-2.05l-24.7-24.7c-.57-.64-1.1-1.3-1.6-2-.22-.31-.43-.62-.63-.94-2.27-3.54-3.58-7.76-3.58-12.29,0-6.32,2.57-12.06,6.72-16.21l94.84-94.84c9.92-9.93,2.9-26.9-11.14-26.9h-169.32c-4.15-.18-8.01-1.46-11.28-3.57-.32-.2-.63-.4-.93-.62-2.13-1.5-3.98-3.35-5.47-5.47-.22-.31-.43-.62-.63-.94-2.2-3.43-3.5-7.5-3.58-11.86v-33.66c.15-12.32,10.04-22.31,22.32-22.61h407.26c15.81,0,24.26-18.61,13.86-30.52l-196.23-224.58c-9.71-11.11-26.8-11.68-37.24-1.24l-123.25,123.24-2.18,2.18c-.23.2-.46.39-.69.58-.19.16-.38.3-.57.44-3.84,2.92-8.62,4.63-13.79,4.63-4.53,0-8.75-1.31-12.3-3.59-.32-.2-.63-.4-.93-.62-.69-.48-1.34-1-1.96-1.56l-1.95-1.94-21.52-21.52-1.65-1.66c-.61-.67-1.18-1.37-1.7-2.12-.22-.31-.43-.62-.63-.94-2.27-3.54-3.58-7.76-3.58-12.29,0-5.94,2.26-11.34,5.96-15.41l1.53-1.53s.02-.02.02-.02l122.71-122.72c11.2-11.2,11.22-29.35.06-40.59l-129.53-130.27-2.45-2.46c-.45-.52-.87-1.07-1.27-1.64-.22-.31-.43-.62-.63-.94-2.27-3.54-3.58-7.76-3.58-12.29,0-5.94,2.26-11.34,5.96-15.41.05-.05.09-.09.13-.14l1.42-1.42s.02-.02.02-.02l21.47-21.35,2.35-2.33c4.01-3.46,9.23-5.55,14.93-5.55s10.6,1.96,14.55,5.22c.29.24.57.48.85.74t.02.03l.29.27,1.1,1.1,215.92,217.17c14.12,14.2,32.68,21.3,51.23,21.3s37.18-7.13,51.31-21.38c35.72-36.02,35.6-94.14-.27-130.01l-126.06-126.07-2.23-2.23c-.51-.58-.98-1.19-1.42-1.82-.22-.31-.43-.62-.63-.94-2.27-3.54-3.58-7.76-3.58-12.29,0-6.19,2.45-11.81,6.45-15.93l.55-.55,22.57-22.56.94-.94c4.1-3.87,9.63-6.25,15.72-6.25,5.53,0,10.6,1.96,14.55,5.22.29.24.57.48.85.74,0,0,.02,0,.02.02l.2.2,1.22,1.22s.06.07.09.1l92.12,92.11c8.37,8.37,22.7,2.44,22.7-9.4V22.03c.46-12.15,10.38-21.89,22.6-22.03h34.53c5.03.27,9.63,2.18,13.27,5.18.29.24.57.48.85.74t.02.03c.54.47,1.03.97,1.51,1.5t.02.03c.23.25.46.52.68.78,0,.02.02.02.02.03,3.03,3.65,4.94,8.26,5.22,13.31v329.41c0,60.72-24.13,118.96-67.07,161.9l-35.43,35.43c-8.69,8.7-8.39,22.88.69,31.2l137.39,125.88c10.42,9.54,23.6,14.29,36.76,14.29,13.96,0,27.9-5.33,38.5-15.95,15.59-15.59,24.36-36.74,24.36-58.8v-330.39c.91-11.28,9.99-20.25,21.3-20.99h36.33c4.83.37,9.24,2.25,12.75,5.15.29.24.57.48.85.74t.02.03c.54.47,1.03.97,1.51,1.5t.02.03c.23.25.46.52.68.78,0,.02.02.02.02.03,3.05,3.68,4.97,8.34,5.23,13.43v250.55c0,12.87,15.56,19.32,24.65,10.21l106.55-106.53,2.63-2.63c3.99-3.4,9.17-5.46,14.82-5.46s10.54,1.94,14.47,5.15l24.53,24.53,1.09,1.08c.05.06.11.11.16.17t.02.03c.23.25.46.52.68.78,0,.02.02.02.02.03,3.28,3.96,5.26,9.05,5.26,14.6,0,5.17-1.72,9.95-4.63,13.79-.14.2-.29.38-.44.57-.12.15-.24.29-.38.44l-2.69,2.69-237.45,237.45c-16.67,16.67-15.97,43.93,1.55,59.72l105.52,95.08c18.31,16.5,46.12,16.5,64.42,0l302.51-272.61c33.85-30.51,35.21-83.14,2.99-115.36l-456.04-456.07-3.19-3.19c-.35-.42-.68-.85-.99-1.29-.22-.31-.43-.62-.63-.94-2.27-3.54-3.58-7.76-3.58-12.29,0-5.91,2.23-11.29,5.91-15.36l1.66-1.66,20.94-20.94,3.18-3.18c3.95-3.25,9.02-5.2,14.53-5.2s10.6,1.96,14.55,5.22c.26.21.51.43.75.65l.12.12,1.51,1.51s0,0,.02.02t0,.02l140.27,140.28c17.39,17.39,45.58,17.39,62.96,0l140.64-140.65.82-.82c4.11-3.91,9.66-6.32,15.78-6.32,5.53,0,10.6,1.96,14.55,5.22.13.11.26.21.38.32l2.31,2.31,21.7,21.7,1.09,1.08c.05.06.11.11.16.17t.02.03c.23.25.46.52.68.78,0,.02.02.02.02.03,3.28,3.96,5.26,9.05,5.26,14.6,0,5.17-1.72,9.95-4.63,13.79-.14.2-.29.38-.44.57-.38.47-.76.92-1.19,1.35l-1.02,1.03-142.42,142.43c-16.31,16.31-16.31,42.75,0,59.05l224.33,224.34c15.12,15.12,37.72,21.83,57.83,14.58,22.45-8.08,36.17-28.79,36.17-51.04V40.9c0-12.26,9.64-22.28,21.74-22.89h34.45c5.4.07,10.34,2.02,14.21,5.21.29.24.57.48.85.74t.02.03c.54.47,1.03.97,1.51,1.5t.02.03c.23.25.46.52.68.78,0,.02.02.02.02.03,3.03,3.65,4.94,8.26,5.22,13.31v177.55c0,14.91,18.03,22.37,28.57,11.84l86.71-86.71c3.92-3.13,8.88-5,14.27-5s10.6,1.96,14.55,5.22c.26.21.51.43.75.65l.12.12,1.51,1.51s0,0,.02.02h0s21.33,21.33,21.33,21.33l2.68,2.68c.07.07.13.15.2.22,0,.02.02.02.02.03,3.28,3.96,5.26,9.05,5.26,14.6,0,5.17-1.72,9.95-4.63,13.79-.07.09-.12.17-.2.25l-4.04,4.05-148.06,148.07c-12.21,12.21-19.07,28.77-19.07,46.02v6.4c0,26.93,21.83,48.76,48.75,48.76h179.26c4.93.33,9.42,2.21,13.01,5.16.29.24.57.48.85.74t.02.03c.54.47,1.03.97,1.51,1.5t.02.03c.23.25.46.52.68.78,0,.02.02.02.02.03,3,3.62,4.91,8.18,5.21,13.18v36.55c-.4,4.34-2.02,8.33-4.52,11.63-.14.2-.29.38-.44.57-1.03,1.28-2.2,2.46-3.49,3.49-.19.16-.38.3-.57.44-3.53,2.69-7.88,4.35-12.59,4.6h-197.32c-31.84,0-62.14,13.71-83.15,37.62l-138.97,158.18c-17.98,20.48-3.45,52.59,23.8,52.59h421.73c5.13.23,9.82,2.14,13.52,5.2.29.24.57.48.85.74t.02.03c.54.47,1.03.97,1.51,1.5t.02.03c.23.25.46.52.68.78,0,.02.02.02.02.03,2.76,3.32,4.59,7.45,5.11,11.96Z"/>
    <g>
      <path d="M176.82,1311.17c-1.2-12.12-6.36-21.53-15.47-28.24-9.11-6.71-21.48-10.07-37.11-10.07-10.62,0-19.58,1.48-26.89,4.43-7.31,2.95-12.9,7.04-16.75,12.24-3.86,5.21-5.78,11.12-5.78,17.73-.2,5.51.98,10.32,3.53,14.42,2.55,4.11,6.08,7.64,10.59,10.59,4.51,2.96,9.71,5.51,15.62,7.66,5.91,2.15,12.22,3.98,18.93,5.48l27.64,6.61c13.42,3.01,25.74,7.01,36.96,12.02,11.22,5.01,20.93,11.17,29.14,18.48,8.21,7.31,14.6,15.92,19.15,25.84,4.56,9.92,6.88,21.28,6.98,34.1-.1,18.83-4.88,35.13-14.35,48.9-9.46,13.77-23.09,24.44-40.86,32-17.78,7.56-39.19,11.34-64.22,11.34s-46.45-3.81-64.82-11.42c-18.38-7.61-32.7-18.9-42.97-33.88-10.27-14.97-15.65-33.52-16.15-55.66h62.95c.7,10.32,3.68,18.91,8.94,25.77,5.26,6.86,12.32,12.02,21.18,15.47,8.86,3.46,18.9,5.18,30.12,5.18s20.6-1.6,28.77-4.81c8.16-3.21,14.5-7.66,19-13.37,4.51-5.71,6.76-12.27,6.76-19.68,0-6.91-2.03-12.72-6.08-17.43s-9.97-8.71-17.73-12.02c-7.76-3.31-17.25-6.31-28.47-9.01l-33.5-8.41c-25.94-6.31-46.42-16.17-61.44-29.59-15.02-13.42-22.49-31.5-22.38-54.23-.1-18.63,4.88-34.9,14.95-48.82,10.06-13.92,23.91-24.79,41.54-32.6,17.63-7.81,37.66-11.72,60.09-11.72s42.79,3.91,59.87,11.72c17.07,7.81,30.37,18.68,39.89,32.6,9.51,13.92,14.42,30.05,14.72,48.37h-62.34Z"/>
      <path d="M558.39,1330.4h-65.8c-1.2-8.51-3.66-16.1-7.36-22.76-3.71-6.66-8.46-12.34-14.27-17.05-5.81-4.71-12.5-8.31-20.06-10.82-7.56-2.5-15.75-3.76-24.56-3.76-15.92,0-29.8,3.93-41.61,11.79-11.82,7.86-20.98,19.28-27.49,34.25-6.51,14.97-9.76,33.12-9.76,54.46s3.28,40.36,9.84,55.28c6.56,14.92,15.75,26.19,27.57,33.8,11.82,7.61,25.49,11.42,41.01,11.42,8.71,0,16.8-1.15,24.26-3.46,7.46-2.3,14.1-5.68,19.9-10.14,5.81-4.46,10.64-9.89,14.5-16.3,3.85-6.41,6.54-13.72,8.04-21.93l65.8.3c-1.7,14.12-5.93,27.72-12.69,40.79-6.76,13.07-15.83,24.74-27.19,35-11.37,10.27-24.89,18.38-40.56,24.34-15.68,5.96-33.38,8.94-53.11,8.94-27.44,0-51.95-6.21-73.54-18.63-21.58-12.42-38.61-30.4-51.08-53.93-12.47-23.53-18.7-52.03-18.7-85.48s6.31-62.09,18.93-85.63c12.62-23.53,29.75-41.49,51.38-53.86,21.63-12.37,45.97-18.55,73.01-18.55,17.83,0,34.38,2.5,49.65,7.51,15.27,5.01,28.82,12.3,40.64,21.86,11.82,9.56,21.46,21.26,28.92,35.08,7.46,13.82,12.24,29.65,14.35,47.47Z"/>
      <path d="M605.11,1530.35v-307.67h121.38c23.23,0,43.09,4.13,59.56,12.39,16.47,8.26,29.04,19.93,37.71,35,8.66,15.07,12.99,32.78,12.99,53.11s-4.41,37.98-13.22,52.65c-8.81,14.67-21.56,25.91-38.23,33.72-16.68,7.81-36.83,11.72-60.47,11.72h-81.27v-52.28h70.76c12.42,0,22.73-1.7,30.95-5.11,8.21-3.4,14.35-8.51,18.4-15.32,4.06-6.81,6.08-15.27,6.08-25.39s-2.03-18.83-6.08-25.84-10.22-12.34-18.48-16c-8.26-3.65-18.65-5.48-31.17-5.48h-43.87v254.49h-65.05ZM771.26,1390.34l76.47,140.01h-71.81l-74.81-140.01h70.16Z"/>
      <path d="M947.78,1222.68v307.67h-65.05v-307.67h65.05Z"/>
      <path d="M1001.4,1530.35v-307.67h121.38c23.33,0,43.21,4.43,59.64,13.29,16.42,8.86,28.97,21.13,37.63,36.81,8.66,15.68,12.99,33.73,12.99,54.16s-4.41,38.46-13.22,54.08c-8.81,15.62-21.56,27.79-38.23,36.5-16.68,8.71-36.83,13.07-60.47,13.07h-77.37v-52.13h66.85c12.52,0,22.86-2.18,31.02-6.53,8.16-4.36,14.27-10.42,18.33-18.18,4.06-7.76,6.08-16.7,6.08-26.82s-2.03-19.15-6.08-26.82c-4.06-7.66-10.19-13.62-18.4-17.88-8.21-4.26-18.63-6.38-31.25-6.38h-43.87v254.49h-65.05Z"/>
      <path d="M1263.7,1276.32v-53.63h252.68v53.63h-94.19v254.03h-64.3v-254.03h-94.19Z"/>
      <path d="M1748.18,1222.68h65.05v199.8c0,22.44-5.33,42.06-16,58.89-10.67,16.83-25.56,29.92-44.69,39.28-19.13,9.36-41.41,14.05-66.85,14.05s-47.87-4.68-67-14.05c-19.13-9.36-34-22.46-44.62-39.28-10.62-16.83-15.92-36.45-15.92-58.89v-199.8h65.05v194.24c0,11.72,2.58,22.13,7.74,31.25,5.16,9.11,12.44,16.28,21.86,21.48,9.41,5.21,20.38,7.81,32.9,7.81s23.61-2.6,32.98-7.81c9.36-5.21,16.62-12.37,21.78-21.48,5.16-9.11,7.74-19.53,7.74-31.25v-194.24Z"/>
      <path d="M1866.71,1530.35v-307.67h121.38c23.23,0,43.09,4.13,59.56,12.39,16.47,8.26,29.04,19.93,37.71,35,8.66,15.07,12.99,32.78,12.99,53.11s-4.41,37.98-13.22,52.65c-8.81,14.67-21.56,25.91-38.23,33.72-16.68,7.81-36.83,11.72-60.47,11.72h-81.27v-52.28h70.76c12.42,0,22.73-1.7,30.95-5.11,8.21-3.4,14.35-8.51,18.4-15.32,4.06-6.81,6.08-15.27,6.08-25.39s-2.03-18.83-6.08-25.84-10.22-12.34-18.48-16c-8.26-3.65-18.65-5.48-31.17-5.48h-43.87v254.49h-65.05ZM2032.86,1390.34l76.47,140.01h-71.81l-74.81-140.01h70.16Z"/>
      <path d="M2144.33,1530.35v-307.67h207.31v53.63h-142.27v73.31h131.6v53.63h-131.6v73.46h142.87v53.63h-207.91Z"/>
    </g>
    <g>
      <path d="M3168.76,1530.5v-307.81h207.41v53.66h-142.33v73.35h131.66v53.66h-131.66v73.5h142.93v53.66h-208.01Z"/>
      <path d="M3489.04,1222.69l62.07,104.91h2.4l62.37-104.91h73.5l-93.94,153.91,96.04,153.91h-74.85l-63.13-105.06h-2.4l-63.13,105.06h-74.55l96.34-153.91-94.54-153.91h73.8Z"/>
      <path d="M3730.42,1530.5v-307.81h121.44c23.35,0,43.23,4.43,59.67,13.3,16.43,8.87,28.98,21.14,37.65,36.82,8.67,15.68,13,33.74,13,54.18s-4.41,38.48-13.23,54.11c-8.82,15.63-21.57,27.81-38.25,36.52-16.68,8.72-36.85,13.08-60.5,13.08h-77.4v-52.15h66.88c12.53,0,22.87-2.18,31.04-6.54,8.17-4.36,14.28-10.42,18.34-18.19,4.06-7.76,6.09-16.71,6.09-26.83s-2.03-19.16-6.09-26.83c-4.06-7.66-10.2-13.63-18.41-17.88-8.22-4.26-18.64-6.39-31.26-6.39h-43.89v254.61h-65.08Z"/>
      <path d="M4004.56,1530.5v-307.81h65.08v254.15h131.96v53.66h-197.04Z"/>
      <path d="M4515.57,1376.59c0,33.57-6.34,62.12-19.01,85.67-12.68,23.55-29.91,41.51-51.7,53.88-21.79,12.38-46.27,18.56-73.42,18.56s-51.91-6.21-73.65-18.64c-21.75-12.42-38.93-30.41-51.55-53.96-12.62-23.54-18.94-52.05-18.94-85.52s6.31-62.12,18.94-85.67c12.62-23.54,29.81-41.51,51.55-53.88,21.74-12.37,46.29-18.56,73.65-18.56s51.63,6.19,73.42,18.56c21.79,12.38,39.03,30.34,51.7,53.88,12.67,23.55,19.01,52.1,19.01,85.67ZM4449.59,1376.59c0-21.74-3.23-40.08-9.69-55.01-6.46-14.93-15.56-26.25-27.28-33.97-11.72-7.71-25.45-11.57-41.18-11.57s-29.46,3.86-41.18,11.57c-11.72,7.72-20.82,19.04-27.28,33.97-6.46,14.93-9.69,33.27-9.69,55.01s3.23,40.08,9.69,55.01c6.46,14.93,15.56,26.25,27.28,33.97,11.72,7.72,25.45,11.57,41.18,11.57s29.46-3.86,41.18-11.57c11.72-7.71,20.82-19.04,27.28-33.97,6.46-14.93,9.69-33.27,9.69-55.01Z"/>
      <path d="M4563.66,1530.5v-307.81h121.44c23.25,0,43.11,4.13,59.59,12.4,16.48,8.27,29.06,19.94,37.72,35.02,8.67,15.08,13,32.79,13,53.13s-4.41,38-13.23,52.68c-8.82,14.68-21.57,25.93-38.25,33.74-16.68,7.82-36.85,11.72-60.5,11.72h-81.31v-52.3h70.79c12.42,0,22.75-1.7,30.96-5.11,8.22-3.41,14.35-8.52,18.41-15.33,4.06-6.81,6.09-15.28,6.09-25.4s-2.03-18.84-6.09-25.85-10.22-12.35-18.49-16.01c-8.27-3.66-18.66-5.49-31.19-5.49h-43.89v254.61h-65.08ZM4729.9,1390.42l76.5,140.08h-71.84l-74.85-140.08h70.19Z"/>
      <path d="M4841.42,1530.5v-307.81h207.41v53.66h-142.33v73.35h131.66v53.66h-131.66v73.5h142.93v53.66h-208.01Z"/>
      <path d="M5100.68,1530.5v-307.81h121.44c23.25,0,43.11,4.13,59.59,12.4,16.48,8.27,29.06,19.94,37.72,35.02,8.67,15.08,13,32.79,13,53.13s-4.41,38-13.23,52.68c-8.82,14.68-21.57,25.93-38.25,33.74-16.68,7.82-36.85,11.72-60.5,11.72h-81.31v-52.3h70.79c12.42,0,22.75-1.7,30.96-5.11,8.22-3.41,14.35-8.52,18.41-15.33,4.06-6.81,6.09-15.28,6.09-25.4s-2.03-18.84-6.09-25.85c-4.06-7.01-10.22-12.35-18.49-16.01-8.27-3.66-18.66-5.49-31.19-5.49h-43.89v254.61h-65.08ZM5266.91,1390.42l76.5,140.08h-71.84l-74.85-140.08h70.19Z"/>
    </g>
  </g>
</svg>