<?xml version="1.0" encoding="UTF-8"?>
<svg id="Layer_2" data-name="Layer 2" xmlns="http://www.w3.org/2000/svg" viewBox="0 0 475.29 211.28">
  <defs>
    <style>
      .cls-1 {
        fill: #000000;
      }
    </style>
  </defs>
  <g id="Layer_1-2" data-name="Layer 1">
    <path class="cls-1" d="M239.65,211.28c-2.11,0-4.21-.4-6.3-1.19-6.19-2.29-11.65-7.35-16.68-15.46-3.82-6.2-7.38-14.16-10.92-24.34-5.41-15.63-9.84-33.81-14.12-51.4-.64-2.64-1.28-5.27-1.92-7.87-4.51-18.36-9.4-37.32-15.32-49.66-.69-1.43-1.39-2.77-2.08-3.97-.72-1.27-1.43-2.39-2.12-3.38-1.31-1.86-2.62-3.32-3.89-4.32-1.09-.85-2.13-1.39-3.16-1.63-1.01-.24-2.11-.2-3.36.11-2.99.74-6.05,2.91-9.08,6.43-3.09,3.59-6.08,8.44-9.12,14.83-5.13,10.76-9.47,23.92-13.67,36.64-.61,1.85-1.22,3.7-1.83,5.53-4.98,14.98-10,29.26-16.7,39.4-3.98,6.03-8.25,10.15-13.05,12.59-5.51,2.83-11.65,3.41-18.22,1.71-5.64-1.46-11.04-4.46-16.04-8.9-3.98-3.54-7.73-7.97-11.46-13.55-5.18-7.76-9.4-16.3-13.48-24.56-.95-1.92-1.89-3.83-2.83-5.7-4.91-9.76-9.19-17.13-14.08-21.4-2.2-1.93-4.43-3.1-6.81-3.59-2.66-.56-5.76-.33-9.48.67l-3.92-14.43c6.04-1.64,11.42-1.93,16.43-.88,4.89,1.01,9.47,3.36,13.6,6.97,6.72,5.86,11.9,14.61,17.6,25.94.96,1.9,1.92,3.84,2.88,5.8,3.87,7.83,7.86,15.93,12.5,22.87,3.01,4.5,5.95,8,8.96,10.68,3.26,2.89,6.48,4.73,9.86,5.6,2.98.77,5.42.6,7.66-.55,2.42-1.24,4.9-3.76,7.39-7.53,5.69-8.61,10.53-22.44,14.99-35.87.61-1.82,1.21-3.66,1.82-5.5,4.34-13.16,8.83-26.78,14.37-38.39,3.63-7.6,7.32-13.54,11.29-18.15,5.1-5.91,10.75-9.68,16.81-11.18,3.56-.88,7.06-.93,10.39-.15,3.14.74,6.16,2.23,8.97,4.42,2.44,1.92,4.76,4.44,6.91,7.5.96,1.37,1.92,2.89,2.85,4.53.85,1.48,1.73,3.15,2.58,4.92,6.54,13.64,11.67,33.45,16.37,52.57.64,2.61,1.28,5.25,1.93,7.9,4.2,17.25,8.54,35.09,13.72,50.04,3.17,9.14,6.28,16.13,9.51,21.38,3.11,5.02,6.29,8.24,9.16,9.3l.1.04c.79.3,1.28.25,1.83.07.35-.12.75-.33,1.17-.63.29-.21.84-.68,1.65-1.61,1.42-1.63,2.88-3.94,4.33-6.85,1.46-2.99,2.96-6.73,4.43-11.06,2.62-7.67,5.29-17.76,8.15-30.85,2.66-12.11,5.19-25.51,7.42-37.33l.36-1.89c4.73-25.07,9.62-50.99,15.7-70.4.81-2.57,1.63-5.02,2.45-7.27.84-2.31,1.73-4.54,2.65-6.63.94-2.14,1.91-4.15,2.89-5.96,1.06-1.94,2.15-3.69,3.27-5.25,7.09-10,14.92-11.06,20.24-10.2,1.89.3,3.8.91,5.63,1.8,1.61.79,3.23,1.88,4.91,3.32,2.7,2.34,5.16,5.32,7.54,9.12,3.9,6.3,7.49,14.7,11,25.72,2.8,8.83,5.51,19.14,8.55,32.47,2.15,9.47,4.22,19.35,6.21,28.9l1.28,6.12c4.82,22.98,9.63,44.8,15.46,59.16,1.38,3.42,2.81,6.36,4.27,8.76,1.69,2.76,3.02,4.16,3.83,4.84.87.74,1.66,1.17,2.42,1.31.71.09,1.62-.1,2.68-.53,3.15-1.5,6.45-4.75,9.8-9.68.84-1.22,1.68-2.65,2.46-4.02.8-1.41,1.62-2.96,2.42-4.57,1.53-3.07,3.03-6.4,4.59-10.2.71-1.74,1.44-3.58,2.16-5.47.74-1.94,1.46-3.96,2.07-5.68,1.22-3.44,2.48-7.16,3.96-11.68,1.1-3.35,2.17-6.69,3.22-9.98,1.46-4.56,2.84-8.86,4.26-13.09,2.97-8.85,5.36-15.13,7.76-20.36,3.19-6.88,6.44-11.88,9.95-15.31,5.57-5.34,17.29-11.78,33.67,4.58l-10.57,10.58c-8.48-8.46-11.02-6.03-12.7-4.42-2.11,2.06-4.4,5.72-6.77,10.82-2.16,4.71-4.37,10.52-7.16,18.84-1.38,4.13-2.75,8.39-4.2,12.9-1.06,3.32-2.15,6.69-3.25,10.07-1.52,4.64-2.82,8.46-4.08,12.02-.64,1.81-1.4,3.93-2.19,6.01-.77,2.01-1.54,3.98-2.3,5.83-1.7,4.14-3.35,7.81-5.05,11.2-.92,1.84-1.86,3.61-2.8,5.27-.96,1.68-1.99,3.44-3.12,5.09-4.98,7.32-10.21,12.19-15.97,14.85l-.22.1c-3.72,1.58-7.38,2.12-10.89,1.6l-.16-.02c-3.45-.58-6.7-2.15-9.66-4.65-2.43-2.05-4.7-4.82-6.93-8.46-1.92-3.15-3.68-6.73-5.38-10.96-6.28-15.49-11.26-38.02-16.23-61.69l-1.28-6.13c-1.98-9.49-4.03-19.3-6.16-28.64-2.94-12.92-5.55-22.85-8.22-31.26-3.13-9.83-6.22-17.14-9.44-22.35-1.54-2.46-3.1-4.39-4.61-5.7-.84-.72-1.39-1.05-1.71-1.21-.51-.25-.97-.4-1.43-.47-.65-.1-2.49-.41-5.69,4.1-.78,1.1-1.56,2.34-2.31,3.72-.76,1.42-1.55,3.05-2.33,4.81-.79,1.81-1.57,3.75-2.3,5.76-.74,2.04-1.5,4.28-2.24,6.63-5.81,18.57-10.62,44.05-15.27,68.7l-.36,1.89c-2.25,11.92-4.81,25.44-7.51,37.76-3.03,13.84-5.77,24.16-8.61,32.47-1.69,4.98-3.39,9.18-5.17,12.84-2.07,4.15-4.17,7.42-6.46,10.06-1.44,1.65-2.82,2.93-4.22,3.94-1.64,1.17-3.34,2.05-5.1,2.64-1.86.62-3.73.94-5.6.94Z"/>
  </g>
</svg>