<?xml version="1.0" encoding="UTF-8"?>
<svg id="Layer_2" data-name="Layer 2" xmlns="http://www.w3.org/2000/svg" viewBox="0 0 656.87 543.44">
  <defs>
    <style>
      .cls-1 {
        fill: #141414;
      }
    </style>
  </defs>
  <g id="_ò__1" data-name="ò‡_1">
    <g>
      <path class="cls-1" d="M64.28,59.49C33.58,59.3.68,63.36.16,102.46c-.34,25.63.04,51.33.04,76.96l-.03,232.25c-.03,31.91-4.83,71.16,38.22,78.53,11.9,2.04,27.29.93,39.66.93l66.73-.02c70.17-.02,83.03.94,143.56,36.87,51.27,30.44,58.1,10.82,105.49-15.13,41.67-22.81,65.17-21.74,111.25-21.74h76.05c12.98.02,31.27,1.4,43.52-1.95,32.99-9.02,32.07-40.49,32.07-66.75v-232.2s.16-83.68.16-83.68c-.17-43.32-29.3-47.15-64.21-47.06-.46,13.51,0,27.2,0,40.72v297.28c0,16.91-13.7,30.62-30.61,30.62h-53.06c-69.5,0-93.7-.96-154.79,35.15-7.01,4.14-15.69,13.02-24.27,13.27-8.65.25-27-12.93-34.73-17.44-56.03-32.66-82.9-30.99-145.73-30.99h-54.57c-16.91,0-30.62-13.7-30.62-30.61V59.49Z"/>
      <g>
        <path class="cls-1" d="M555.88,4.07c-4.4-2.64-9.47-3.94-14.6-4-69.66-.86-128.53,5.49-180.89,61.43-23.98,25.62-20.95,27.6-20.93,59.42l-.02,293.76c0,5.08-.1,10.18-.13,15.28-.03,5.49,5.66,9.14,10.64,6.84,1.38-.64,2.77-1.26,4.17-1.89,49.66-22.04,71.42-29.59,128.99-29.68h39.77c17.15.06,38.5,4.1,44.88-17.48,3.07-10.38,1.7-50.54,1.69-63.49l.02-273.43c.01-18.17,2.3-37.21-13.6-46.75Z"/>
        <path class="cls-1" d="M101,4.07C105.39,1.44,110.47.13,115.59.07c69.66-.86,128.53,5.49,180.89,61.43,23.98,25.62,20.95,27.6,20.93,59.42l.02,293.76c0,5.08.1,10.18.13,15.28.03,5.49-5.66,9.14-10.64,6.84-1.38-.64-2.77-1.26-4.17-1.89-49.66-22.04-71.42-29.59-128.99-29.68h-39.77c-17.15.06-38.5,4.1-44.88-17.48-3.07-10.38-1.7-50.54-1.69-63.49l-.02-273.43c-.01-18.17-2.3-37.21,13.6-46.75Z"/>
      </g>
    </g>
  </g>
</svg>