<?xml version="1.0" encoding="UTF-8"?>
<svg id="Layer_2" data-name="Layer 2" xmlns="http://www.w3.org/2000/svg" viewBox="0 0 1443.46 1465.34">
  <defs>
    <style>
      .cls-1 {
        fill: #fff;
      }
    </style>
  </defs>
  <g id="Graphic_Elements" data-name="Graphic Elements">
    <path class="cls-1" d="M1443.46,682.47v31.46c-.21,4.02-1.64,7.73-3.93,10.76-.12.17-.24.33-.38.49-.88,1.1-1.88,2.11-2.98,2.98-.16.13-.32.26-.49.38-2.97,2.26-6.6,3.67-10.55,3.92h-174.19c-14.96,0-22.45,18.08-11.87,28.66l74.16,74.17,2.64,2.63s.01.02.02.03c2.8,3.38,4.5,7.73,4.5,12.48,0,4.42-1.47,8.5-3.96,11.78l-24.13,24.13c-3.28,2.5-7.36,3.96-11.79,3.96-3.87,0-7.48-1.12-10.51-3.07l-6.01-6.01-127.06-127.06c-13.88-13.88-32.71-21.69-52.35-21.69h-92.49c-27.85,0-54.28,12.33-72.16,33.68l-89.33,106.61c-11.77,14.04-18.22,31.78-18.22,50.11v525.21c-.4,3.55-1.76,6.83-3.83,9.54-.12.17-.24.33-.38.49-.88,1.1-1.88,2.11-2.98,2.98-.16.13-.32.26-.49.38-2.9,2.2-6.42,3.6-10.25,3.9h-180.99c-3.87,0-7.48-1.12-10.51-3.07-.27-.17-.54-.34-.8-.53-1.82-1.28-3.4-2.86-4.68-4.68-.19-.27-.37-.53-.54-.8-1.58-2.46-2.62-5.3-2.94-8.36v-525.05c0-18.32-6.45-36.06-18.22-50.11l-93.67-111.79c-15.14-18.06-37.5-28.5-61.07-28.5h-112.52c-11.14,0-21.82,4.42-29.69,12.29l-138.39,138.41-1.89,1.89c-.19.17-.38.33-.57.48-.16.13-.32.26-.49.38-3.28,2.5-7.36,3.96-11.79,3.96-3.87,0-7.48-1.12-10.51-3.07-.27-.17-.54-.34-.8-.53-.76-.53-1.48-1.12-2.14-1.76l-21.11-21.11c-.49-.55-.94-1.11-1.36-1.71-.19-.27-.37-.53-.54-.8-1.94-3.03-3.06-6.64-3.06-10.5,0-5.41,2.2-10.31,5.74-13.85l81.07-81.07c8.48-8.49,2.48-22.99-9.52-22.99H18.71c-3.55-.15-6.85-1.24-9.64-3.05-.27-.17-.54-.34-.8-.53-1.82-1.28-3.4-2.86-4.68-4.68-.19-.27-.37-.53-.54-.8-1.88-2.93-2.99-6.41-3.06-10.14v-28.77c.13-10.53,8.58-19.07,19.08-19.33h348.11c13.51,0,20.74-15.91,11.85-26.09l-167.74-191.97c-8.3-9.5-22.91-9.99-31.83-1.06l-105.35,105.34-1.86,1.86c-.2.17-.39.34-.59.5-.16.13-.32.26-.49.38-3.28,2.5-7.36,3.96-11.79,3.96-3.87,0-7.48-1.12-10.51-3.07-.27-.17-.54-.34-.8-.53-.59-.41-1.15-.85-1.68-1.34l-1.66-1.66-18.39-18.39-1.41-1.42c-.52-.57-1.01-1.17-1.45-1.81-.19-.27-.37-.53-.54-.8-1.94-3.03-3.06-6.64-3.06-10.5,0-5.08,1.93-9.69,5.09-13.18l1.31-1.31s.01-.01.02-.02l104.89-104.9c9.57-9.57,9.59-25.09.05-34.69L20.53,253.09l-2.1-2.11c-.38-.45-.74-.92-1.08-1.4-.19-.27-.37-.53-.54-.8-1.94-3.03-3.06-6.64-3.06-10.5,0-5.08,1.93-9.69,5.09-13.18.04-.04.08-.08.11-.12l1.22-1.21s.01-.01.02-.01l18.35-18.25,2.01-1.99c3.43-2.96,7.89-4.74,12.76-4.74s9.06,1.68,12.44,4.46c.25.2.49.41.73.63t.02.03l.25.23.94.94,184.57,185.63c12.07,12.14,27.93,18.21,43.79,18.21s31.78-6.1,43.86-18.27c30.53-30.79,30.43-80.47-.23-111.13l-107.75-107.76-1.91-1.9c-.43-.5-.84-1.01-1.22-1.55-.19-.27-.37-.53-.54-.8-1.94-3.03-3.06-6.64-3.06-10.5,0-5.29,2.1-10.09,5.51-13.62l.47-.47,19.29-19.29.8-.8c3.5-3.31,8.23-5.34,13.43-5.34,4.73,0,9.06,1.68,12.44,4.46.25.2.49.41.73.63,0,0,.01,0,.01.01l.17.17,1.04,1.04s.05.06.08.08l78.75,78.74c7.15,7.15,19.4,2.08,19.4-8.04V18.83c.39-10.39,8.87-18.71,19.32-18.83h29.52c4.3.23,8.23,1.86,11.34,4.43.25.2.49.41.73.63t.02.03c.46.41.88.83,1.29,1.28t.02.03c.2.22.39.44.58.66,0,.01.01.02.02.03,2.59,3.12,4.22,7.06,4.46,11.38v281.57c0,51.9-20.62,101.68-57.33,138.39l-30.29,30.28c-7.43,7.43-7.17,19.55.59,26.67l117.44,107.6c8.91,8.15,20.18,12.22,31.42,12.22,11.93,0,23.85-4.56,32.91-13.64,13.33-13.33,20.82-31.41,20.82-50.26v-282.41c.78-9.64,8.54-17.31,18.21-17.94h31.06c4.13.31,7.9,1.92,10.9,4.4.25.2.49.41.73.63t.02.03c.46.41.88.83,1.29,1.28t.02.03c.2.22.39.44.58.66,0,.01.01.02.02.03,2.61,3.15,4.25,7.13,4.47,11.48v214.16c0,11,13.3,16.51,21.07,8.73l91.07-91.06,2.25-2.25c3.41-2.91,7.84-4.66,12.67-4.66s9.01,1.66,12.37,4.41l20.97,20.97.93.92s.09.1.13.15t.02.03c.2.22.39.44.58.66,0,.01.01.02.02.03,2.8,3.38,4.5,7.73,4.5,12.48,0,4.42-1.47,8.5-3.96,11.78-.12.17-.24.33-.38.49-.1.13-.2.25-.32.38l-2.3,2.3-202.97,202.97c-14.25,14.25-13.65,37.55,1.32,51.04l90.19,81.27c15.65,14.11,39.42,14.11,55.07,0l258.58-233.03c28.93-26.08,30.1-71.07,2.56-98.61L602.04,62.79l-2.73-2.73c-.3-.36-.58-.73-.85-1.1-.19-.27-.37-.53-.54-.8-1.94-3.03-3.06-6.64-3.06-10.5,0-5.05,1.91-9.65,5.05-13.13l1.42-1.42,17.9-17.9,2.72-2.72c3.38-2.78,7.71-4.45,12.42-4.45s9.06,1.68,12.44,4.46c.22.18.43.36.64.55l.1.1,1.29,1.29s0,0,.01.01t0,.01l119.9,119.91c14.86,14.86,38.96,14.86,53.82,0l120.22-120.22.7-.7c3.51-3.34,8.26-5.4,13.49-5.4,4.73,0,9.06,1.68,12.44,4.46.11.09.22.18.33.27l1.97,1.97,18.55,18.55.93.92s.09.1.13.15t.02.03c.2.22.39.44.58.66,0,.01.01.02.02.03,2.8,3.38,4.5,7.73,4.5,12.48,0,4.42-1.47,8.5-3.96,11.78-.12.17-.24.33-.38.49-.32.4-.65.78-1.01,1.15l-.87.88-121.74,121.75c-13.94,13.94-13.94,36.54,0,50.48l191.75,191.76c12.92,12.92,32.24,18.66,49.44,12.46,19.19-6.9,30.92-24.61,30.92-43.63V34.96c0-10.48,8.24-19.04,18.58-19.57h29.45c4.62.06,8.84,1.73,12.15,4.45.25.2.49.41.73.63t.02.03c.46.41.88.83,1.29,1.28t.02.03c.2.22.39.44.58.66,0,.01.01.02.02.03,2.59,3.12,4.22,7.06,4.46,11.38v151.76c0,12.74,15.41,19.12,24.42,10.12l74.12-74.12c3.35-2.68,7.59-4.27,12.2-4.27s9.06,1.68,12.44,4.46c.22.18.43.36.64.55l.1.1,1.29,1.29s0,0,.01.01h0s18.23,18.23,18.23,18.23l2.29,2.29c.06.06.11.13.17.19,0,.01.01.02.02.03,2.8,3.38,4.5,7.73,4.5,12.48,0,4.42-1.47,8.5-3.96,11.78-.06.08-.1.15-.17.22l-3.45,3.46-126.56,126.57c-10.44,10.43-16.3,24.59-16.3,39.34v5.47c0,23.02,18.66,41.68,41.67,41.68h153.23c4.21.28,8.06,1.89,11.12,4.41.25.2.49.41.73.63t.02.03c.46.41.88.83,1.29,1.28t.02.03c.2.22.39.44.58.66,0,.01.01.02.02.03,2.57,3.1,4.2,6.99,4.45,11.27v31.25c-.34,3.71-1.73,7.12-3.87,9.94-.12.17-.24.33-.38.49-.88,1.1-1.88,2.11-2.98,2.98-.16.13-.32.26-.49.38-3.02,2.3-6.73,3.72-10.76,3.93h-168.67c-27.22,0-53.11,11.72-71.07,32.16l-118.79,135.21c-15.37,17.5-2.95,44.95,20.34,44.95h360.49c4.38.2,8.39,1.83,11.56,4.44.25.2.49.41.73.63t.02.03c.46.41.88.83,1.29,1.28t.02.03c.2.22.39.44.58.66,0,.01.01.02.02.03,2.36,2.84,3.92,6.36,4.36,10.22Z"/>
  </g>
</svg>