<?xml version="1.0" encoding="UTF-8"?>
<svg id="Layer_2" data-name="Layer 2" xmlns="http://www.w3.org/2000/svg" viewBox="0 0 3038.03 3060.58">
  <g id="Layer_1-2" data-name="Layer 1">
    <path d="M2986.15,2758.19l-799.77-799.77c14.64-19.12,28.75-38.66,42.26-58.66,65.67-97.19,117.74-204.5,153.38-319.1,35.65-114.58,54.82-236.46,54.81-362.25.03-167.74-34.09-328.45-95.82-474.32-92.62-218.88-246.87-404.56-441.24-535.91-97.19-65.67-204.5-117.74-319.1-153.38C1466.1,19.16,1344.21-.01,1218.42,0c-167.74-.03-328.46,34.09-474.32,95.82-218.88,92.62-404.57,246.87-535.91,441.24-65.67,97.19-117.74,204.5-153.38,319.1C19.16,970.74-.01,1092.63,0,1218.42c-.03,167.74,34.09,328.45,95.82,474.31,92.62,218.88,246.88,404.56,441.24,535.91,97.2,65.67,204.5,117.74,319.1,153.38,114.58,35.65,236.47,54.82,362.26,54.81,167.74.03,328.45-34.09,474.31-95.82,85.43-36.15,165.78-81.73,239.84-135.38l803.07,803.07c69.17,69.17,181.33,69.18,250.51,0,69.17-69.17,69.18-181.33,0-250.51ZM1475.46,2043.74c-81.06,25.2-167.17,38.81-257.04,38.82-119.81-.03-233.02-24.18-336.31-67.84-154.85-65.46-287.15-175.27-380.36-313.28-46.61-68.99-83.45-144.96-108.66-225.99-25.2-81.06-38.81-167.17-38.82-257.04.03-119.8,24.18-233.02,67.84-336.31,65.46-154.85,175.27-287.15,313.28-380.36,68.99-46.61,144.96-83.45,225.99-108.66,81.06-25.2,167.17-38.81,257.04-38.82,119.8.03,233.02,24.18,336.31,67.84,154.85,65.46,287.15,175.27,380.36,313.28,46.61,69,83.45,144.96,108.66,225.99,25.2,81.06,38.81,167.17,38.82,257.04-.03,119.8-24.18,233.02-67.84,336.31-65.46,154.85-175.27,287.15-313.28,380.36-68.99,46.61-144.96,83.45-225.99,108.66Z"/>
  </g>
</svg>