<?xml version="1.0" encoding="UTF-8"?>
<svg id="Layer_2" data-name="Layer 2" xmlns="http://www.w3.org/2000/svg" viewBox="0 0 1286.75 925.81">
  <g id="Layer_1-2" data-name="Layer 1">
    <g>
      <path d="M821.82,729.83v54.63h18.73l-18.73-54.63ZM858.23,682.15l26.49,77.28,8.58,25.03h260.27v-102.31h-295.34ZM840.55,784.46l-18.73-54.63-31.89-93.05-99.78,289.03h140.44l28.44-87.42-18.48-53.93ZM1073.05,305.9h-168.9l-87.75,254.2,41.83,122.05,26.49,77.28,25.14-77.28,76.32-234.59h4.84l76.17,234.59,33.22,102.31,45.89,141.35h140.45l-213.7-619.91Z"/>
      <path d="M196.66,561.91v152.79h495.45v-152.79H196.66ZM859.03,838.39l-18.48-53.93-18.73-54.63-31.89-93.05L571.66,0h-252.05L0,925.81h209.77l68.68-211.11,49.7-152.79,113.98-350.35h7.23l113.76,350.35,49.6,152.79,68.55,211.11h207.73l-29.97-87.42Z"/>
    </g>
  </g>
</svg>