<?xml version="1.0" encoding="UTF-8"?>
<svg id="Layer_2" data-name="Layer 2" xmlns="http://www.w3.org/2000/svg" viewBox="0 0 1688.69 1714.29">
  <g id="Graphic_Elements" data-name="Graphic Elements" fill="#ffffff">
    <path d="M1688.69,798.42v36.81c-.25,4.7-1.91,9.05-4.6,12.58-.14.2-.29.38-.44.57-1.03,1.28-2.2,2.46-3.49,3.49-.19.16-.38.3-.57.44-3.48,2.64-7.72,4.3-12.35,4.58h-203.78c-17.5,0-26.26,21.16-13.88,33.53l86.76,86.77,3.08,3.08s.02.02.02.03c3.28,3.96,5.26,9.05,5.26,14.6,0,5.17-1.72,9.95-4.63,13.79l-28.23,28.23c-3.84,2.92-8.62,4.63-13.79,4.63-4.53,0-8.75-1.31-12.3-3.59l-7.04-7.04-148.64-148.65c-16.24-16.24-38.27-25.37-61.25-25.37h-108.2c-32.59,0-63.5,14.42-84.42,39.4l-104.51,124.72c-13.77,16.43-21.31,37.18-21.31,58.62v614.44c-.47,4.16-2.06,7.99-4.48,11.16-.14.2-.29.38-.44.57-1.03,1.28-2.2,2.46-3.49,3.49-.19.16-.38.3-.57.44-3.39,2.58-7.51,4.21-11.99,4.56h-211.74c-4.53,0-8.75-1.31-12.3-3.59-.32-.2-.63-.4-.93-.62-2.13-1.5-3.98-3.35-5.47-5.47-.22-.31-.43-.62-.63-.94-1.85-2.88-3.06-6.2-3.44-9.78v-614.25c0-21.44-7.55-42.19-21.32-58.62l-109.58-130.78c-17.71-21.13-43.87-33.34-71.44-33.34h-131.64c-13.03,0-25.53,5.17-34.74,14.38l-161.9,161.92-2.21,2.21c-.22.2-.44.38-.67.56-.19.16-.38.3-.57.44-3.84,2.92-8.62,4.63-13.79,4.63-4.53,0-8.75-1.31-12.3-3.59-.32-.2-.63-.4-.93-.62-.88-.62-1.73-1.31-2.5-2.05l-24.7-24.7c-.57-.64-1.1-1.3-1.6-2-.22-.31-.43-.62-.63-.94-2.27-3.54-3.58-7.76-3.58-12.29,0-6.32,2.57-12.06,6.72-16.21l94.84-94.84c9.92-9.93,2.9-26.9-11.14-26.9H21.89c-4.15-.18-8.01-1.46-11.28-3.57-.32-.2-.63-.4-.93-.62-2.13-1.5-3.98-3.35-5.47-5.47-.22-.31-.43-.62-.63-.94-2.2-3.43-3.5-7.5-3.58-11.86v-33.66c.15-12.32,10.04-22.31,22.32-22.61h407.26c15.81,0,24.26-18.61,13.86-30.52l-196.23-224.58c-9.71-11.11-26.8-11.68-37.24-1.24l-123.25,123.24-2.18,2.18c-.23.2-.46.39-.69.58-.19.16-.38.3-.57.44-3.84,2.92-8.62,4.63-13.79,4.63-4.53,0-8.75-1.31-12.3-3.59-.32-.2-.63-.4-.93-.62-.69-.48-1.34-1-1.96-1.56l-1.95-1.94-21.52-21.52-1.65-1.66c-.61-.67-1.18-1.37-1.7-2.12-.22-.31-.43-.62-.63-.94-2.27-3.54-3.58-7.76-3.58-12.29,0-5.94,2.26-11.34,5.96-15.41l1.53-1.53s.02-.02.02-.02l122.71-122.72c11.2-11.2,11.22-29.35.06-40.59L24.01,296.09l-2.45-2.46c-.45-.52-.87-1.07-1.27-1.64-.22-.31-.43-.62-.63-.94-2.27-3.54-3.58-7.76-3.58-12.29,0-5.94,2.26-11.34,5.96-15.41.05-.05.09-.09.13-.14l1.42-1.42s.02-.02.02-.02l21.47-21.35,2.35-2.33c4.01-3.46,9.23-5.55,14.93-5.55s10.6,1.96,14.55,5.22c.29.24.57.48.85.74t.02.03l.29.27,1.1,1.1,215.92,217.17c14.12,14.2,32.68,21.3,51.23,21.3s37.18-7.13,51.31-21.38c35.72-36.02,35.6-94.14-.27-130.01l-126.06-126.07-2.23-2.23c-.51-.58-.98-1.19-1.42-1.82-.22-.31-.43-.62-.63-.94-2.27-3.54-3.58-7.76-3.58-12.29,0-6.19,2.45-11.81,6.45-15.93l.55-.55,22.57-22.56.94-.94c4.1-3.87,9.63-6.25,15.72-6.25,5.53,0,10.6,1.96,14.55,5.22.29.24.57.48.85.74,0,0,.02,0,.02.02l.2.2,1.22,1.22s.06.07.09.1l92.12,92.11c8.37,8.37,22.7,2.44,22.7-9.4V22.03c.46-12.15,10.38-21.89,22.6-22.03h34.53c5.03.27,9.63,2.18,13.27,5.18.29.24.57.48.85.74t.02.03c.54.47,1.03.97,1.51,1.5t.02.03c.23.25.46.52.68.78,0,.02.02.02.02.03,3.03,3.65,4.94,8.26,5.22,13.31v329.41c0,60.72-24.13,118.96-67.07,161.9l-35.43,35.43c-8.69,8.7-8.39,22.88.69,31.2l137.39,125.88c10.42,9.54,23.6,14.29,36.76,14.29,13.96,0,27.9-5.33,38.5-15.95,15.59-15.59,24.36-36.74,24.36-58.8v-330.39c.91-11.28,9.99-20.25,21.3-20.99h36.33c4.83.37,9.24,2.25,12.75,5.15.29.24.57.48.85.74t.02.03c.54.47,1.03.97,1.51,1.5t.02.03c.23.25.46.52.68.78,0,.02.02.02.02.03,3.05,3.68,4.97,8.34,5.23,13.43v250.55c0,12.87,15.56,19.32,24.65,10.21l106.55-106.53,2.63-2.63c3.99-3.4,9.17-5.46,14.82-5.46s10.54,1.94,14.47,5.15l24.53,24.53,1.09,1.08c.05.06.11.11.16.17t.02.03c.23.25.46.52.68.78,0,.02.02.02.02.03,3.28,3.96,5.26,9.05,5.26,14.6,0,5.17-1.72,9.95-4.63,13.79-.14.2-.29.38-.44.57-.12.15-.24.29-.38.44l-2.69,2.69-237.45,237.45c-16.67,16.67-15.97,43.93,1.55,59.72l105.52,95.08c18.31,16.5,46.12,16.5,64.42,0l302.51-272.61c33.85-30.51,35.21-83.14,2.99-115.36L704.32,73.46l-3.19-3.19c-.35-.42-.68-.85-.99-1.29-.22-.31-.43-.62-.63-.94-2.27-3.54-3.58-7.76-3.58-12.29,0-5.91,2.23-11.29,5.91-15.36l1.66-1.66,20.94-20.94,3.18-3.18c3.95-3.25,9.02-5.2,14.53-5.2s10.6,1.96,14.55,5.22c.26.21.51.43.75.65l.12.12,1.51,1.51s0,0,.02.02t0,.02l140.27,140.28c17.39,17.39,45.58,17.39,62.96,0l140.64-140.65.82-.82c4.11-3.91,9.66-6.32,15.78-6.32,5.53,0,10.6,1.96,14.55,5.22.13.11.26.21.38.32l2.31,2.31,21.7,21.7,1.09,1.08c.05.06.11.11.16.17t.02.03c.23.25.46.52.68.78,0,.02.02.02.02.03,3.28,3.96,5.26,9.05,5.26,14.6,0,5.17-1.72,9.95-4.63,13.79-.14.2-.29.38-.44.57-.38.47-.76.92-1.19,1.35l-1.02,1.03-142.42,142.43c-16.31,16.31-16.31,42.75,0,59.05l224.33,224.34c15.12,15.12,37.72,21.83,57.83,14.58,22.45-8.08,36.17-28.79,36.17-51.04V40.9c0-12.26,9.64-22.28,21.74-22.89h34.45c5.4.07,10.34,2.02,14.21,5.21.29.24.57.48.85.74t.02.03c.54.47,1.03.97,1.51,1.5t.02.03c.23.25.46.52.68.78,0,.02.02.02.02.03,3.03,3.65,4.94,8.26,5.22,13.31v177.55c0,14.91,18.03,22.37,28.57,11.84l86.71-86.71c3.92-3.13,8.88-5,14.27-5s10.6,1.96,14.55,5.22c.26.21.51.43.75.65l.12.12,1.51,1.51s0,0,.02.02h0s21.33,21.33,21.33,21.33l2.68,2.68c.07.07.13.15.2.22,0,.02.02.02.02.03,3.28,3.96,5.26,9.05,5.26,14.6,0,5.17-1.72,9.95-4.63,13.79-.07.09-.12.17-.2.25l-4.04,4.05-148.06,148.07c-12.21,12.21-19.07,28.77-19.07,46.02v6.4c0,26.93,21.83,48.76,48.75,48.76h179.26c4.93.33,9.42,2.21,13.01,5.16.29.24.57.48.85.74t.02.03c.54.47,1.03.97,1.51,1.5t.02.03c.23.25.46.52.68.78,0,.02.02.02.02.03,3,3.62,4.91,8.18,5.21,13.18v36.55c-.4,4.34-2.02,8.33-4.52,11.63-.14.2-.29.38-.44.57-1.03,1.28-2.2,2.46-3.49,3.49-.19.16-.38.3-.57.44-3.53,2.69-7.88,4.35-12.59,4.6h-197.32c-31.84,0-62.14,13.71-83.15,37.62l-138.97,158.18c-17.98,20.48-3.45,52.59,23.8,52.59h421.73c5.13.23,9.82,2.14,13.52,5.2.29.24.57.48.85.74t.02.03c.54.47,1.03.97,1.51,1.5t.02.03c.23.25.46.52.68.78,0,.02.02.02.02.03,2.76,3.32,4.59,7.45,5.11,11.96Z"/>
  </g>
</svg>