<?xml version="1.0" encoding="UTF-8"?>
<svg id="Layer_2" data-name="Layer 2" xmlns="http://www.w3.org/2000/svg" viewBox="0 0 930.84 1014.88">
  <defs>
    <style>
      .cls-1 {
        fill: #ffffff;
      }
    </style>
  </defs>
  <g id="Layer_1-2" data-name="Layer 1">
    <g>
      <path class="cls-1" d="M464.89,139.93c-44.12-35.08-38.68-103.27.43-139.93,20.47,22.14,36.71,51.57,32.89,82.71-2.53,22.96-17.69,41.42-33.32,57.22"/>
      <path class="cls-1" d="M703.63,253.22c-41.25-27.67-45.74-87.97-18.38-126.91,38.89,28.74,53.02,89.35,18.38,126.91"/>
      <path class="cls-1" d="M683.33,554.1c31.87-46.26,94.27-67.33,147.04-46.13-18.59,60.91-96.67,81.85-147.04,46.13"/>
      <path class="cls-1" d="M255.02,740.5c.77-50.84,35.21-107.33,90.16-110.42,0,52.08-38.72,100.57-90.16,110.42"/>
      <path class="cls-1" d="M125.41,744.62c5.31-52.94,53.15-99.41,107.89-94.06-10.36,50.93-55.38,91.91-107.89,94.06"/>
      <path class="cls-1" d="M353.61,53.75c51.61,30.28,83.91,93.5,73.54,153.08-30.71-11.86-58.68-33.88-72.73-64.2-12.72-27.97-9.89-60.26-.81-88.87"/>
      <path class="cls-1" d="M501.08,208.29c-9.04-59.96,22.91-122.5,74.61-153.21,23.86,61.63-11.14,134.49-74.61,153.21"/>
      <path class="cls-1" d="M297.68,310.87c-35.64-22.23-37.05-74.7-7.37-102.45,32.81,23.43,35.64,74.27,7.37,102.45"/>
      <path class="cls-1" d="M725,284.4c5.74-51.57,59.92-86.65,109.26-68.83-9.38,49.3-59.32,86.65-109.26,68.83"/>
      <path class="cls-1" d="M523.91,358.07c-4.84-42.06,24.33-81.85,65.66-90.16,16.1,43.64-19.1,92.34-65.66,90.16"/>
      <path class="cls-1" d="M714.85,379.91c23.73-53.07,88.96-76.92,142.88-58.46-17.17,59.96-88.83,83.69-142.88,58.46"/>
      <path class="cls-1" d="M815.89,455.68c8.27-52.51,64.07-85.28,114.19-67.67-7.54,52.25-63.77,90.12-114.19,67.67"/>
      <path class="cls-1" d="M239.72,401.2c29.51-27.2,77.82-16.06,98.9,16.11-30.71,25.48-75.51,13.11-98.9-16.11"/>
      <path class="cls-1" d="M99.41,507.59c52.55-21.03,116.46-2.27,147.04,45.87-29.17,16.96-66.77,24.24-98.17,8.95-23.17-10.62-38.46-32.34-48.87-54.82"/>
      <path class="cls-1" d="M0,553.72c49.47-21.24,106.18,5.18,127.29,53.28-20.9,12.94-47.63,18.59-70.93,8.95-26.73-11.61-44.46-36.62-56.37-62.23"/>
      <path class="cls-1" d="M805.82,610.3c17.82-49.81,75.6-75.98,125.02-56.79-11.86,25.91-28.87,52.38-56.36,63.52-22.53,9.04-47.63,3.68-68.66-6.72"/>
      <path class="cls-1" d="M589.87,630.51c52.25,4.54,88.06,55.85,83.91,106.39-50.97-6.08-93.54-53.84-83.91-106.39"/>
      <path class="cls-1" d="M699.3,650.47c54.14-5.31,101.59,41.8,105.58,94.27-52.3-1.11-97.18-43.43-105.58-94.27"/>
      <path class="cls-1" d="M226.45,253.13c-34.44-37.39-21.07-97.95,17.47-127.04,27.07,39.02,22.66,98.43-17.47,127.04"/>
      <path class="cls-1" d="M586.01,531.23h0c44.59-38.12,98.21-62.57,152.05-84.46-57.26,8.22-124.89,28.14-152.05,84.46M192.78,446.85h0c53.84,20.69,107.03,45.57,150.55,84.21-26.25-56.41-94.01-75.6-150.55-84.21ZM310.87,144.98c5.18-.08,10.32-.17,15.55-.21-.08,23.04,6.25,46.43,21.59,64.08,25.91,34.56,77.61,33.92,100.52,72.26,5.65-42.66,9.98-85.58,17.3-127.98,7.58,42.92,11.18,86.43,16.28,129.69,13.49-19.19,32.42-34.01,54.57-41.93,39.66-14.35,69.43-53.97,67.16-96.88,4.93.34,9.94.77,14.99,1.2,3.68,51.7-31.27,101.17-78.47,120.35-34.09,13.66-54.35,51.65-52.42,87.5,1.46,37.61,3.08,75.25,3.38,112.94,29.3-25.83,48.7-60.26,76.11-87.72,22.36-22.92,54.22-30.11,83.09-41.08,28.35-11.01,46.77-36.36,63.39-60.48-8.22,25.83-21.33,51.31-43.26,68.1-24.76,19.27-58.04,22.06-82.88,41.2-25.96,19.06-38.33,50.03-58.55,74.18-12.08,16.62-28.78,31.1-34.48,51.4-1.63,31.78,1.03,63.73,1.16,95.56,30.5-49.43,62.96-99.11,107.51-137.19,54.44-44.07,129.52-51.61,196.47-39.1.17,6.94.34,13.88.56,20.82-49.43,22.49-99.92,42.62-148.75,66.34-33.19,17.73-58.59,46.3-84.68,72.73,68.79-21.89,137.14,6.08,201.52,28.4,31.87,11.61,66.47,9.76,98.73,19.32-1.88,2.57-3.77,5.1-5.57,7.67-40.65,10.28-84.63,9.81-121.98-11.14-51.65-25.66-115.94-36.32-169.1-9.17-37.56,20.22-48.87,65.15-54.52,104.21-15.25,91.92,14.65,198.65,96.28,250.86,32.98,21.54,72.55,26.94,110.63,32.64-172.74,1.71-345.52-.26-518.3,1.33,30.97-8.22,63.86-9.76,93.24-23.68,62.7-28.31,102.41-93.07,114.74-159.03,10.96-61.38,5.87-128.36-25.1-183.45-28.65-39.06-84.38-41.5-128.32-35.55-36.36,4.93-67.24,26.55-102.19,36.06-28.87,7.84-58.81,1.63-87.59-3.43-.39-2.06-1.16-6.25-1.54-8.35,34.52-7.62,70.46-8.44,104.08-20.52,61.38-22.31,127.17-45.44,192.82-25.96-27.03-28.87-55.04-58.72-91.4-75.81-47.54-21.2-95.47-41.59-143.1-62.66.21-7.15.43-14.31.68-21.42,65.57-12.34,139.2-5.31,193.25,36.83,45.83,37.78,78.68,88.27,110.46,137.74-.99-32.64,3.43-65.4.81-97.91-7.37-19.7-24.07-33.71-36.36-50.15-19.92-23.17-31.69-53.24-56.71-71.83-20.09-15.25-45.44-19.7-67.72-30.54-30.88-15.33-50.54-46.9-59.24-79.37,11.14,16.15,21.2,33.62,37.09,45.74,28.57,24.16,69.81,23.04,98.6,47.03,34.31,27.33,53.28,68.87,87.33,96.67.51-38.93,3.38-77.78,3.9-116.71-.39-33.11-16.19-70.29-49.68-81.85-48.87-17.99-86.6-68.7-81.89-121.77Z"/>
      <path class="cls-1" d="M96.41,215.4c49.08-18.76,101.21,19.15,104.55,69.99-48.74,15.21-96.33-22.14-104.55-69.99"/>
      <path class="cls-1" d="M631.46,311.6c-29.13-27.93-25.66-80.69,8.48-103.01,27.54,29.21,26.43,80.05-8.48,103.01"/>
      <path class="cls-1" d="M591.07,417.47c21.42-33.15,70.03-42.75,100.57-16.28-24.16,28.53-69.34,40.86-100.57,16.28"/>
      <path class="cls-1" d="M338.24,266.79c42.66,6.9,75.08,48.1,70.33,91.36-46.69.51-79.62-47.33-70.33-91.36"/>
      <path class="cls-1" d="M72.34,321.49c53.92-19.53,118.34,5.27,142.5,57.95-53.67,24.71-126.09,2.57-142.5-57.95"/>
      <path class="cls-1" d="M.73,388.05c49.47-17.56,105.19,15.76,113.03,67.59-50.11,22.53-105.11-16.4-113.03-67.59"/>
    </g>
  </g>
</svg>