<?xml version="1.0" encoding="UTF-8"?>
<svg id="Layer_2" data-name="Layer 2" xmlns="http://www.w3.org/2000/svg" viewBox="0 0 520 425.32">
  <defs>
    <style>
      .cls-1 {
        fill: #163240;
      }
    </style>
  </defs>
  <g id="Layer_1-2" data-name="Layer 1">
    <path class="cls-1" d="M116.9,425.32c-1.28,0-2.57-.25-3.79-.75-3.62-1.49-6.04-4.95-6.2-8.86l-3.07-78.81h-.46C46.38,336.89,0,290.51,0,233.51c0-22.57,7.15-44.02,20.67-62.02,11.28-15.02,26.68-26.81,44-33.85-.61-4.55-.92-9.13-.92-13.68,0-57.01,46.38-103.38,103.38-103.38,13.77,0,27.07,2.65,39.62,7.88C230.56,10.06,259.93,0,290.15,0c55.69,0,106.04,34.23,126.69,85.64,26.09,11.64,46.58,34.01,55.83,61,29.29,18.95,47.33,51.88,47.33,86.86,0,57.01-46.38,103.38-103.38,103.38h-201.42l-91.45,85.72c-1.89,1.77-4.35,2.7-6.84,2.7ZM167.13,40.57c-45.98,0-83.38,37.41-83.38,83.38,0,6.03.67,12.12,1.99,18.1,1.13,5.09-1.85,10.19-6.83,11.72-35.24,10.8-58.91,42.84-58.91,79.73,0,45.98,37.4,83.38,83.38,83.38h10.08c5.37,0,9.78,4.24,9.99,9.61l2.59,66.54,78.36-73.45c1.85-1.74,4.3-2.7,6.84-2.7h205.37c45.98,0,83.38-37.41,83.38-83.38,0-29.25-15.65-56.73-40.84-71.71-2.15-1.28-3.75-3.32-4.47-5.72-7.29-24.25-25.73-44.28-49.34-53.57-2.67-1.05-4.75-3.19-5.73-5.88-16.69-45.83-60.68-76.63-109.48-76.63-27.62,0-54.4,9.85-75.42,27.72-3.04,2.58-7.31,3.12-10.89,1.36-11.49-5.64-23.84-8.51-36.7-8.51Z"/>
    <g>
      <path class="cls-1" d="M348.01,191.16h-176.03c-5.52,0-10-4.48-10-10s4.48-10,10-10h176.03c5.52,0,10,4.48,10,10s-4.48,10-10,10Z"/>
      <path class="cls-1" d="M331.8,254.16h-143.61c-5.52,0-10-4.48-10-10s4.48-10,10-10h143.61c5.52,0,10,4.48,10,10s-4.48,10-10,10Z"/>
    </g>
  </g>
</svg>